<?xml version="1.0" encoding="utf-8"?>
<!-- Generator: Adobe Illustrator 25.0.0, SVG Export Plug-In . SVG Version: 6.00 Build 0)  -->
<svg version="1.1" id="Capa_1" xmlns="http://www.w3.org/2000/svg" xmlns:xlink="http://www.w3.org/1999/xlink" x="0px" y="0px"
	 viewBox="0 0 566.9 566.9" style="enable-background:new 0 0 566.9 566.9;" xml:space="preserve">
<style type="text/css">
	.st0{fill:#425156;}
	.st1{fill:#717F59;}
</style>
<g>
	<path class="st0" d="M498.1,438.5h-98.3c-20.2,0-36.5-16.4-36.5-36.5V294c0-20.2,16.4-36.5,36.5-36.5h98.4
		c20.1,0,36.4,16.3,36.4,36.4V402C534.6,422.2,518.3,438.5,498.1,438.5z"/>
	<g>
		<path class="st0" d="M292.4,257.5h-55.9v90.9H327v-56.3C327,272.9,311.5,257.5,292.4,257.5z"/>
		<path class="st0" d="M236.5,347.4v91.2h56.7c18.7,0,33.9-15.2,33.9-33.9v-57.3H236.5z"/>
		<path class="st0" d="M236.5,347.4h-90.5v57.2c0,18.8,15.2,34,34,34h56.5V347.4z"/>
		<rect x="145.9" y="257.5" class="st1" width="90.5" height="90.9"/>
	</g>
	<g>
		<rect x="363.2" y="40.2" class="st1" width="85.7" height="90.4"/>
		<rect x="448.9" y="40.2" class="st1" width="85.7" height="90.4"/>
		<path class="st0" d="M363.2,186.7c0,19.1,15.5,34.6,34.6,34.6h51.1v-91.6h-85.7V186.7z"/>
		<path class="st0" d="M448.9,129.6v91.6h52c18.6,0,33.7-15.1,33.7-33.7v-57.9H448.9z"/>
	</g>
	<path class="st0" d="M236.5,129.7v91.5h56.8c18.7,0,33.8-15.1,33.8-33.8v-57.7H236.5z"/>
	<rect x="145.9" y="129.7" class="st1" width="90.5" height="91.5"/>
	<rect x="236.5" y="40.2" class="st1" width="90.5" height="90.5"/>
	<rect x="145.9" y="40.2" class="st1" width="90.5" height="90.5"/>
	<rect x="67.3" y="372.9" class="st0" width="25.7" height="155.8"/>
	<rect x="105.7" y="459.4" class="st1" width="25.7" height="69.3"/>
	<g>
		<path class="st1" d="M48.9,335.4v13H33.8v-43.3h15.2v13h74.3v17.3H48.9z"/>
		<path class="st1" d="M101.9,277.6l21.3,2.1v17.6l-89.5-12.6V259l89.5-13v17.8l-21.3,2.6V277.6z M86.8,267.9
			c-11.4,1.2-28.8,2.9-37.4,3.9v0.7c6.2,0.3,26.3,2.4,37.4,3.6V267.9z"/>
		<path class="st1" d="M48.9,225.8v13H33.8v-43.3h15.2v13h74.3v17.3H48.9z"/>
		<path class="st1" d="M95.6,164.7h6.3c5.8,0,8.6-1.5,8.6-5.4c0-4-4-5-8.3-5c-8.5,0-10.9,1.6-18.5,10.7
			c-8.6,10.2-13.7,15.3-26.8,15.3c-12.7,0-24.5-4.2-24.5-21.2c0-18,12.3-20.7,22.5-20.7h5.1v16.2h-5.4c-5.4,0-8,0.9-8,4.3
			c0,3.2,2.7,4.3,7.8,4.3c5.4,0,8.1-1.1,13.8-8.5c10.3-13.1,16.2-17.8,30.9-17.8c14.1,0,25.6,4.8,25.6,22.5c0,17-10.3,22-23.6,22
			h-5.4V164.7z"/>
		<path class="st1" d="M95.6,103.4h6.3c5.8,0,8.6-1.5,8.6-5.4c0-4-4-5-8.3-5c-8.5,0-10.9,1.6-18.5,10.7
			C75.1,114,70,119.1,56.8,119.1c-12.7,0-24.5-4.2-24.5-21.2c0-18,12.3-20.7,22.5-20.7h5.1v16.2h-5.4c-5.4,0-8,0.9-8,4.3
			c0,3.2,2.7,4.3,7.8,4.3c5.4,0,8.1-1.1,13.8-8.4C78.4,80.5,84.3,75.8,99,75.8c14.1,0,25.6,4.8,25.6,22.5c0,17-10.3,22-23.6,22h-5.4
			V103.4z"/>
		<path class="st1" d="M33.8,40.3h89.5v17.2H33.8V40.3z"/>
	</g>
	<g>
		<path class="st0" d="M158.8,467.4v18.9h-4.4v-18.9h-7.6v-3.9h19.7v3.9H158.8z"/>
		<path class="st0" d="M174.1,486.9c-4.9,0-8.5-3.4-8.5-8.9c0-5.5,3.8-9,8.7-9s8.5,3.4,8.5,9C182.8,483.4,179,486.9,174.1,486.9z
			 M174.2,472.4c-2.8,0-4.3,2.3-4.3,5.5c0,3.2,1.6,5.5,4.4,5.5c2.8,0,4.3-2.2,4.3-5.4C178.6,474.7,177,472.4,174.2,472.4z"/>
		<path class="st0" d="M194.3,486.9c-4.9,0-8.5-3.4-8.5-8.9c0-5.5,3.8-9,8.7-9s8.5,3.4,8.5,9C203.1,483.4,199.3,486.9,194.3,486.9z
			 M194.4,472.4c-2.8,0-4.3,2.3-4.3,5.5c0,3.2,1.6,5.5,4.4,5.5c2.8,0,4.3-2.2,4.3-5.4C198.8,474.7,197.2,472.4,194.4,472.4z"/>
		<path class="st0" d="M207,486.3V462l4.3-0.6v25H207z"/>
		<path class="st0" d="M221.5,486.9c-2.2,0-4.9-0.6-6.5-1.6l0.9-3.4c1.7,0.9,3.8,1.6,5.7,1.6c1.7,0,2.8-0.7,2.8-1.9
			c0-1.3-1.4-1.8-3.4-2.3c-3.2-0.7-5.7-2-5.7-5.2c0-3.2,2.7-5.3,6.7-5.3c2.1,0,4.6,0.5,6.1,1.3l-0.9,3.4c-1.6-0.8-3.8-1.4-5.3-1.4
			c-1.6,0-2.5,0.6-2.5,1.7c0,1.3,1.4,1.7,3.4,2.2c3.2,0.8,5.7,2,5.7,5.3C228.5,484.6,225.8,486.9,221.5,486.9z"/>
		<path class="st0" d="M251,465.5c-0.8-0.4-1.8-0.7-2.7-0.7c-1.6,0-2.2,0.9-2.2,3v1.9h5l-0.1,3.5h-4.8v13.2h-4.3v-13.1l-2.9-0.2
			l0.1-2.7l2.7-0.8l0-1.8c0.1-4.8,2.3-6.7,6.1-6.7c1.6,0,3.1,0.5,4,0.8C251.9,461.8,251,465.5,251,465.5z"/>
		<path class="st0" d="M261.6,486.9c-4.9,0-8.5-3.4-8.5-8.9c0-5.5,3.8-9,8.7-9s8.5,3.4,8.5,9C270.3,483.4,266.5,486.9,261.6,486.9z
			 M261.7,472.4c-2.8,0-4.3,2.3-4.3,5.5c0,3.2,1.6,5.5,4.4,5.5c2.8,0,4.3-2.2,4.3-5.4C266.1,474.7,264.5,472.4,261.7,472.4z"/>
		<path class="st0" d="M278.6,486.3h-4.3v-16.7l4.3-0.6v2.7c1.1-1.8,2.4-2.8,4.4-2.8c1,0,2.1,0.2,3,0.8l-0.9,3.9
			c-0.8-0.4-1.6-0.7-2.4-0.7c-1.5,0-2.9,0.9-4,3V486.3z"/>
		<path class="st0" d="M317.4,486.3h-4.5l-1.9-5.4h-9.2l-1.9,5.4h-4.5l8.3-22.8h5.4L317.4,486.3z M306.5,467.4l-3.5,9.9h6.9
			L306.5,467.4z"/>
		<path class="st0" d="M331.2,486.3v-10.3c0-2.5-1-3.3-2.9-3.3c-1.5,0-2.9,0.8-3.7,1.6v12h-4.3v-16.8l4.3-0.6c0,0,0,2.6,0,2.7
			c1.5-1.6,3.5-2.7,5.5-2.7c3.4,0,5.4,2.2,5.4,5.8v11.6H331.2z"/>
		<path class="st0" d="M349.2,484.4c-1.2,1.5-2.7,2.5-4.7,2.5c-3,0-5.2-2.1-5.2-4.7c0-3.1,2.3-5.7,10-6v-0.4c0-2.3-0.9-3.2-3.4-3.2
			c-1.7,0-3.8,0.8-5.6,1.8l-0.9-3.4c1.6-1,4.3-2,7-2c5.2,0,7.2,2.3,7.1,6.9v6c0,1.3,0.2,1.5,1.5,1.5l-0.3,3.2
			c-3.2,0.4-4.7-0.6-5.3-2.3H349.2z M349.2,478.4c-4.2,0.5-5.7,1.3-5.7,3.1c0,1.3,1,2.2,2.5,2.2c1.4,0,2.4-0.6,3.2-1.5V478.4z"/>
		<path class="st0" d="M358.3,486.3V462l4.3-0.6v25H358.3z"/>
		<path class="st0" d="M376.2,486l-1,2.6c-1.7,4.6-3.6,6-6.7,6c-1.5,0-2.9-0.4-4.3-1l1.3-3.5c1,0.5,1.8,0.8,2.7,0.8
			c1.2,0,1.9-0.5,2.8-2.8l0.7-1.9l-6.6-16.6h4.6l4.2,12l4-12h4.6L376.2,486z"/>
		<path class="st0" d="M383.6,486.3v-3l8.8-10.2H384v-3.7h14v2.9l-8.8,10.3h8.8v3.7H383.6z"/>
		<path class="st0" d="M403.6,466.5c-1.7,0-2.6-1-2.6-2.6c0-1.5,0.9-2.6,2.6-2.6c1.7,0,2.7,1.1,2.7,2.6
			C406.2,465.4,405.3,466.5,403.6,466.5z M401.4,486.3v-16.7l4.3-0.6v17.3H401.4z"/>
		<path class="st0" d="M421.6,486.3v-10.3c0-2.5-1-3.3-2.9-3.3c-1.5,0-2.9,0.8-3.7,1.6v12h-4.3v-16.8l4.3-0.6c0,0,0,2.6,0,2.7
			c1.5-1.6,3.5-2.7,5.5-2.7c3.4,0,5.4,2.2,5.4,5.8v11.6H421.6z"/>
		<path class="st0" d="M429.8,484.1c0-1.5,1.2-2.9,3.1-3.5c-1.9-0.9-3.1-2.8-3.1-5.2c0-3.5,2.7-6.4,7.4-6.4c1.9,0,3.6,0.5,4.7,1.1
			l4.5-0.4l0.2,3.8l-3.2-0.5c0.4,0.5,0.8,1.8,0.8,2.6c0,3.4-2.9,6.1-7,6.1c-0.8,0-1.4-0.1-2.3-0.3c-0.6,0.2-1.3,0.8-1.3,1.5
			c0,0.9,0.8,1.3,3.5,1.3c0,0,2,0,1.8,0c4.8,0,7.6,1.4,7.6,4.6c0,4-4.5,6.7-9.8,6.7c-4.5,0-8-1.6-8-4.7c0-1.8,1.3-3.3,3.8-3.7
			C430.9,486.5,429.8,485.5,429.8,484.1z M432.5,489.9c0,1.6,1.9,2.7,4.8,2.7c3,0,5.2-1.1,5.2-2.8c0-1.6-1.5-1.9-4.7-1.9
			c-1.1,0-2.5-0.1-3.2-0.1C433.4,488.1,432.5,488.9,432.5,489.9z M437.3,478.8c1.9,0,3-1.4,3-3.5c0-2-1.1-3.4-3.2-3.4
			c-1.9,0-3.1,1.4-3.1,3.5C434,477.4,435.2,478.8,437.3,478.8z"/>
		<path class="st0" d="M468.7,467.4v18.9h-4.4v-18.9h-7.6v-3.9h19.7v3.9H468.7z"/>
		<path class="st0" d="M481.7,466.5c-1.7,0-2.6-1-2.6-2.6c0-1.5,0.9-2.6,2.6-2.6c1.7,0,2.7,1.1,2.7,2.6
			C484.3,465.4,483.4,466.5,481.7,466.5z M479.5,486.3v-16.7l4.3-0.6v17.3H479.5z"/>
		<path class="st0" d="M509.9,486.3v-10.2c0-2.5-1-3.4-2.8-3.4c-1.5,0-2.7,0.8-3.5,1.5v1v11.1h-4.3v-10.2c0-2.5-0.9-3.4-2.7-3.4
			c-1.5,0-2.7,0.6-3.5,1.4v12.2h-4.3v-16.8l4.3-0.6c0,0,0,2.2,0,2.4c1.6-1.6,3.3-2.4,5.4-2.4c2,0,3.8,1,4.6,2.9
			c1.7-1.8,3.7-2.9,6-2.9c3.2,0,5.2,2.2,5.2,5.8v11.5H509.9z"/>
		<path class="st0" d="M522.3,478.9c0.2,2.7,2,4.6,5,4.6c1.8,0,3.7-0.6,5.3-1.5l0.5,3.6c-1.6,0.9-3.8,1.4-6.1,1.4
			c-5.4,0-9-3.4-9-8.8c0-5.5,3.7-9.1,8.7-9.1c4.5,0,6.9,2.7,6.9,6.8c0,0.9-0.1,2.1-0.4,2.8c0,0-11,0.1-11,0.1V478.9z M529.6,476.2
			c0-0.1,0-0.3,0-0.3c0-2.3-1-3.7-3.2-3.7c-2.4,0-3.8,1.9-4,4L529.6,476.2z"/>
		<path class="st0" d="M159.7,519.1c0-1.9-1.7-2.6-5.1-3.5c-3.3-0.9-7.1-2.4-7.1-6.9c0-4.1,3.1-6.8,8.2-6.8c3.1,0,5.7,0.8,7.8,2
			l-1.1,3.8c-2-1.2-4.6-2-6.7-2c-2.7,0-3.8,1.1-3.8,2.7c0,1.9,2,2.6,5.2,3.4c3.4,0.9,7,2.5,7,6.9c0,4.2-3.3,7.1-8.7,7.1
			c-3,0-6.1-0.8-8.2-2.1l1-3.8c2.1,1.3,4.5,2.2,7.3,2.2C157.9,522.1,159.7,520.9,159.7,519.1z"/>
		<path class="st0" d="M170.5,517.9c0.2,2.7,2,4.6,5,4.6c1.8,0,3.7-0.6,5.3-1.5l0.5,3.6c-1.6,0.9-3.8,1.4-6.1,1.4
			c-5.4,0-9-3.4-9-8.8c0-5.5,3.7-9.1,8.7-9.1c4.5,0,6.9,2.7,6.9,6.8c0,0.9-0.1,2.1-0.4,2.8c0,0-11,0.1-11,0.1V517.9z M177.8,515.2
			c0-0.1,0-0.3,0-0.3c0-2.3-1-3.7-3.2-3.7c-2.4,0-3.8,1.9-4,4L177.8,515.2z"/>
		<path class="st0" d="M189.2,525.3h-4.3v-16.7l4.3-0.6v2.7c1.1-1.8,2.4-2.8,4.4-2.8c1,0,2.1,0.2,3,0.8l-0.9,3.9
			c-0.8-0.4-1.6-0.7-2.4-0.7c-1.5,0-2.9,0.9-4,3V525.3z"/>
		<path class="st0" d="M200.8,505.5c-1.7,0-2.6-1-2.6-2.6c0-1.5,0.9-2.6,2.6-2.6c1.7,0,2.7,1.1,2.7,2.6
			C203.5,504.4,202.5,505.5,200.8,505.5z M198.7,525.3v-16.7l4.3-0.6v17.3H198.7z"/>
		<path class="st0" d="M210.3,517.9c0.2,2.7,2,4.6,5,4.6c1.8,0,3.7-0.6,5.3-1.5l0.5,3.6c-1.6,0.9-3.8,1.4-6.1,1.4
			c-5.4,0-9-3.4-9-8.8c0-5.5,3.6-9.1,8.7-9.1c4.5,0,6.9,2.7,6.9,6.8c0,0.9-0.1,2.1-0.4,2.8c0,0-11,0.1-11,0.1V517.9z M217.6,515.2
			c0-0.1,0-0.3,0-0.3c0-2.3-1-3.7-3.2-3.7c-2.4,0-3.8,1.9-4,4L217.6,515.2z"/>
		<path class="st0" d="M229.9,525.9c-2.2,0-4.9-0.6-6.5-1.6l0.9-3.4c1.7,0.9,3.8,1.6,5.7,1.6c1.7,0,2.8-0.7,2.8-1.9
			c0-1.3-1.4-1.8-3.4-2.3c-3.2-0.7-5.7-2-5.7-5.2c0-3.2,2.7-5.3,6.7-5.3c2.1,0,4.6,0.5,6.1,1.3l-0.9,3.4c-1.6-0.8-3.8-1.4-5.3-1.4
			c-1.6,0-2.5,0.6-2.5,1.7c0,1.3,1.4,1.7,3.4,2.2c3.2,0.8,5.7,2,5.7,5.3C236.9,523.6,234.2,525.9,229.9,525.9z"/>
		<path class="st0" d="M255.2,525.9c-4.9,0-8.5-3.4-8.5-8.9c0-5.5,3.8-9,8.7-9c5,0,8.5,3.4,8.5,9
			C263.9,522.4,260.1,525.9,255.2,525.9z M255.2,511.4c-2.8,0-4.3,2.3-4.3,5.5c0,3.2,1.6,5.5,4.4,5.5c2.8,0,4.3-2.2,4.3-5.4
			C259.6,513.7,258,511.4,255.2,511.4z"/>
		<path class="st0" d="M276.9,504.5c-0.8-0.4-1.8-0.7-2.7-0.7c-1.6,0-2.2,0.9-2.2,3v1.9h5l-0.1,3.5H272v13.2h-4.3v-13.1l-2.9-0.2
			l0.1-2.7l2.7-0.8l0-1.8c0.1-4.8,2.3-6.7,6.1-6.7c1.6,0,3.1,0.5,4,0.8C277.8,500.8,276.9,504.5,276.9,504.5z"/>
		<path class="st0" d="M298.1,519.1c0-1.9-1.7-2.6-5.1-3.5c-3.3-0.9-7.1-2.4-7.1-6.9c0-4.1,3.1-6.8,8.2-6.8c3.1,0,5.7,0.8,7.8,2
			l-1.1,3.8c-2-1.2-4.6-2-6.7-2c-2.7,0-3.8,1.1-3.8,2.7c0,1.9,2,2.6,5.2,3.4c3.4,0.9,7,2.5,7,6.9c0,4.2-3.3,7.1-8.7,7.1
			c-3,0-6.1-0.8-8.2-2.1l1-3.8c2.1,1.3,4.5,2.2,7.3,2.2C296.4,522.1,298.1,520.9,298.1,519.1z"/>
		<path class="st0" d="M314.5,523.4c-1.2,1.5-2.7,2.5-4.7,2.5c-3,0-5.2-2.1-5.2-4.7c0-3.1,2.3-5.7,10-6v-0.4c0-2.3-0.9-3.2-3.4-3.2
			c-1.7,0-3.8,0.8-5.6,1.8l-0.9-3.4c1.6-1,4.3-2,7-2c5.2,0,7.2,2.3,7.1,6.9v6c0,1.3,0.2,1.5,1.5,1.5l-0.3,3.2
			c-3.2,0.4-4.7-0.6-5.3-2.3H314.5z M314.5,517.4c-4.2,0.5-5.7,1.3-5.7,3.1c0,1.3,1,2.2,2.5,2.2c1.4,0,2.4-0.6,3.2-1.5V517.4z"/>
		<path class="st0" d="M328.7,525.9c-3.8,0-5.7-1.6-5.6-5.7l0.3-7.9l-2.6-0.3l0.1-2.7l2.6-0.8l0.1-3.7h4.2l-0.1,3.9h4.7l-0.1,3.5
			h-4.9l-0.2,7.8c0,1.6,0.8,2.3,2.2,2.3c0.9,0,1.8-0.2,2.6-0.5l0.6,3.5C331.3,525.7,330.1,525.9,328.7,525.9z"/>
		<path class="st0" d="M338.3,517.9c0.2,2.7,2,4.6,5,4.6c1.8,0,3.7-0.6,5.3-1.5l0.5,3.6c-1.6,0.9-3.8,1.4-6.1,1.4
			c-5.4,0-9-3.4-9-8.8c0-5.5,3.7-9.1,8.7-9.1c4.5,0,6.9,2.7,6.9,6.8c0,0.9-0.1,2.1-0.4,2.8c0,0-11,0.1-11,0.1V517.9z M345.6,515.2
			c0-0.1,0-0.3,0-0.3c0-2.3-1-3.7-3.2-3.7c-2.4,0-3.8,1.9-4,4L345.6,515.2z"/>
		<path class="st0" d="M352.7,525.3V501l4.3-0.6v25H352.7z"/>
		<path class="st0" d="M361.1,525.3V501l4.3-0.6v25H361.1z"/>
		<path class="st0" d="M371.6,505.5c-1.7,0-2.6-1-2.6-2.6c0-1.5,0.9-2.6,2.6-2.6c1.7,0,2.7,1.1,2.7,2.6
			C374.2,504.4,373.3,505.5,371.6,505.5z M369.4,525.3v-16.7l4.3-0.6v17.3H369.4z"/>
		<path class="st0" d="M383.7,525.9c-3.8,0-5.7-1.6-5.6-5.7l0.3-7.9l-2.6-0.3l0.1-2.7l2.6-0.8l0.1-3.7h4.2l-0.1,3.9h4.7l-0.1,3.5
			h-4.9l-0.2,7.8c0,1.6,0.8,2.3,2.2,2.3c0.9,0,1.8-0.2,2.6-0.5l0.6,3.5C386.4,525.7,385.2,525.9,383.7,525.9z"/>
		<path class="st0" d="M393.4,517.9c0.2,2.7,2,4.6,5,4.6c1.8,0,3.7-0.6,5.3-1.5l0.5,3.6c-1.6,0.9-3.8,1.4-6.1,1.4
			c-5.4,0-9-3.4-9-8.8c0-5.5,3.7-9.1,8.7-9.1c4.5,0,6.9,2.7,6.9,6.8c0,0.9-0.1,2.1-0.4,2.8c0,0-11,0.1-11,0.1V517.9z M400.7,515.2
			c0-0.1,0-0.3,0-0.3c0-2.3-1-3.7-3.2-3.7c-2.4,0-3.8,1.9-4,4L400.7,515.2z"/>
		<path class="st0" d="M415,525.3v-22.8h4.4v22.8H415z"/>
		<path class="st0" d="M445,525.3v-10.2c0-2.5-1-3.4-2.8-3.4c-1.5,0-2.7,0.8-3.5,1.5v1v11.1h-4.3v-10.2c0-2.5-0.9-3.4-2.7-3.4
			c-1.5,0-2.7,0.6-3.5,1.4v12.2h-4.3v-16.8l4.3-0.6c0,0,0,2.2,0,2.4c1.6-1.6,3.3-2.4,5.4-2.4c2,0,3.8,1,4.6,2.9
			c1.7-1.8,3.7-2.9,6-2.9c3.2,0,5.2,2.2,5.2,5.8v11.5H445z"/>
		<path class="st0" d="M462,523.4c-1.2,1.5-2.7,2.5-4.7,2.5c-3,0-5.2-2.1-5.2-4.7c0-3.1,2.3-5.7,10-6v-0.4c0-2.3-0.9-3.2-3.4-3.2
			c-1.7,0-3.8,0.8-5.6,1.8l-0.9-3.4c1.6-1,4.3-2,7-2c5.2,0,7.2,2.3,7.1,6.9v6c0,1.3,0.2,1.5,1.5,1.5l-0.3,3.2
			c-3.2,0.4-4.7-0.6-5.3-2.3H462z M462,517.4c-4.2,0.5-5.7,1.3-5.7,3.1c0,1.3,1,2.2,2.5,2.2c1.4,0,2.4-0.6,3.2-1.5V517.4z"/>
		<path class="st0" d="M469.2,523.1c0-1.5,1.2-2.9,3.1-3.5c-1.9-0.9-3.1-2.8-3.1-5.2c0-3.5,2.7-6.4,7.4-6.4c1.9,0,3.6,0.5,4.7,1.1
			l4.5-0.4l0.2,3.8l-3.2-0.5c0.4,0.5,0.8,1.8,0.8,2.6c0,3.4-2.9,6.1-7,6.1c-0.8,0-1.4-0.1-2.3-0.3c-0.6,0.2-1.3,0.8-1.3,1.5
			c0,0.9,0.8,1.3,3.5,1.3c0,0,2,0,1.8,0c4.8,0,7.6,1.4,7.6,4.6c0,4-4.5,6.7-9.8,6.7c-4.5,0-8-1.6-8-4.7c0-1.8,1.3-3.3,3.8-3.7
			C470.3,525.5,469.2,524.5,469.2,523.1z M471.9,528.9c0,1.6,1.9,2.7,4.8,2.7c3,0,5.2-1.1,5.2-2.8c0-1.6-1.5-1.9-4.7-1.9
			c-1.1,0-2.5-0.1-3.2-0.1C472.8,527.1,471.9,527.9,471.9,528.9z M476.7,517.8c1.9,0,3-1.4,3-3.5c0-2-1.1-3.4-3.2-3.4
			c-1.9,0-3.1,1.4-3.1,3.5C473.4,516.4,474.6,517.8,476.7,517.8z"/>
		<path class="st0" d="M491.2,517.9c0.2,2.7,2,4.6,5,4.6c1.8,0,3.7-0.6,5.3-1.5l0.5,3.6c-1.6,0.9-3.8,1.4-6.1,1.4
			c-5.4,0-9-3.4-9-8.8c0-5.5,3.6-9.1,8.7-9.1c4.5,0,6.9,2.7,6.9,6.8c0,0.9-0.1,2.1-0.4,2.8c0,0-11,0.1-11,0.1V517.9z M498.5,515.2
			c0-0.1,0-0.3,0-0.3c0-2.3-1-3.7-3.2-3.7c-2.4,0-3.8,1.9-4,4L498.5,515.2z"/>
		<path class="st0" d="M509.9,525.3h-4.3v-16.7l4.3-0.6v2.7c1.1-1.8,2.4-2.8,4.4-2.8c1,0,2.1,0.2,3,0.8l-0.9,3.9
			c-0.8-0.4-1.6-0.7-2.4-0.7c-1.5,0-2.9,0.9-4,3V525.3z"/>
		<path class="st0" d="M529.3,525l-1,2.6c-1.7,4.6-3.6,6-6.7,6c-1.5,0-2.9-0.4-4.3-1l1.3-3.5c1,0.5,1.8,0.8,2.7,0.8
			c1.2,0,1.9-0.5,2.8-2.8l0.7-1.9l-6.6-16.6h4.6l4.2,12l4-12h4.6L529.3,525z"/>
	</g>
</g>
</svg>
