<svg id="Capa_1" data-name="Capa 1" xmlns="http://www.w3.org/2000/svg" viewBox="0 0 566.93 566.93"><defs><style>.cls-1{fill:#425156;}.cls-2{fill:#717f59;}</style></defs><path class="cls-1" d="M399.76,257.46h98.41a36.45,36.45,0,0,1,36.45,36.45V402a36.57,36.57,0,0,1-36.57,36.57H399.76A36.53,36.53,0,0,1,363.23,402V294A36.53,36.53,0,0,1,399.76,257.46Z"/><path class="cls-1" d="M292.41,257.46H236.48v90.87H327V292.06A34.61,34.61,0,0,0,292.41,257.46Z"/><path class="cls-1" d="M236.48,347.37v91.16h56.67A33.88,33.88,0,0,0,327,404.66V347.37Z"/><path class="cls-1" d="M236.48,347.37H145.94v57.16a34,34,0,0,0,34,34h56.53Z"/><rect class="cls-2" x="145.94" y="257.46" width="90.54" height="90.88"/><rect class="cls-2" x="363.23" y="40.17" width="85.7" height="90.43"/><rect class="cls-2" x="448.93" y="40.17" width="85.7" height="90.43"/><path class="cls-1" d="M363.23,186.68a34.56,34.56,0,0,0,34.56,34.56h51.14V129.63h-85.7Z"/><path class="cls-1" d="M448.93,129.63v91.61h52a33.7,33.7,0,0,0,33.7-33.7V129.63Z"/><path class="cls-1" d="M236.48,129.74v91.5h56.76A33.78,33.78,0,0,0,327,187.46V129.74Z"/><rect class="cls-2" x="145.94" y="129.74" width="90.54" height="91.5"/><rect class="cls-2" x="236.48" y="40.17" width="90.54" height="90.54"/><rect class="cls-2" x="145.94" y="40.17" width="90.54" height="90.54"/><rect class="cls-1" x="67.28" y="372.87" width="25.69" height="155.8"/><rect class="cls-2" x="105.69" y="459.37" width="25.69" height="69.3"/><path class="cls-2" d="M48.93,335.38v13H33.78V305.06H48.93v13h74.32v17.31Z"/><path class="cls-2" d="M101.92,277.56l21.33,2.15v17.57L33.78,284.67V259.05l89.47-13v17.84l-21.33,2.55ZM86.76,267.9c-11.4,1.21-28.84,3-37.42,3.89v.67c6.17.27,26.29,2.42,37.42,3.62Z"/><path class="cls-2" d="M48.93,225.78v13H33.78V195.46H48.93v13h74.32v17.31Z"/><path class="cls-2" d="M95.62,164.74h6.3c5.77,0,8.58-1.47,8.58-5.36s-4-5-8.31-5c-8.45,0-10.86,1.6-18.51,10.73C75.09,175.34,70,180.44,56.85,180.44c-12.74,0-24.54-4.16-24.54-21.2,0-18,12.33-20.65,22.53-20.65h5.09v16.23H54.57c-5.37,0-8,.94-8,4.29s2.68,4.29,7.78,4.29c5.36,0,8.05-1.07,13.82-8.45C78.45,141.81,84.34,137.11,99,137.11c14.08,0,25.62,4.83,25.62,22.54,0,17-10.33,22-23.61,22H95.62Z"/><path class="cls-2" d="M95.62,103.44h6.3c5.77,0,8.58-1.47,8.58-5.36s-4-5-8.31-5c-8.45,0-10.86,1.61-18.51,10.73C75.09,114,70,119.14,56.85,119.14c-12.74,0-24.54-4.16-24.54-21.2,0-18,12.33-20.65,22.53-20.65h5.09V93.51H54.57c-5.37,0-8,.95-8,4.3s2.68,4.29,7.78,4.29c5.36,0,8.05-1.07,13.82-8.45C78.45,80.5,84.34,75.81,99,75.81c14.08,0,25.62,4.83,25.62,22.53,0,17-10.33,22-23.61,22H95.62Z"/><path class="cls-2" d="M33.78,40.26h89.47V57.43H33.78Z"/><path class="cls-1" d="M153,467h-6.75v-3.62h17.9V467H157.3v20.08H153Z"/><path class="cls-1" d="M181.17,478.36c0,6.3-4.44,9.11-8.8,9.11-4.85,0-8.58-3.34-8.58-8.83s3.7-9.07,8.86-9.07S181.17,473.16,181.17,478.36Zm-12.91.18c0,3.3,1.62,5.8,4.25,5.8,2.47,0,4.19-2.43,4.19-5.87,0-2.68-1.2-5.74-4.15-5.74S168.26,475.69,168.26,478.54Z"/><path class="cls-1" d="M201.86,478.36c0,6.3-4.43,9.11-8.79,9.11-4.85,0-8.58-3.34-8.58-8.83s3.69-9.07,8.86-9.07S201.86,473.16,201.86,478.36Zm-12.9.18c0,3.3,1.61,5.8,4.25,5.8,2.46,0,4.18-2.43,4.18-5.87,0-2.68-1.19-5.74-4.15-5.74S189,475.69,189,478.54Z"/><path class="cls-1" d="M206.26,462.11h4.37v25h-4.37Z"/><path class="cls-1" d="M216,483.11a9.65,9.65,0,0,0,4.4,1.23c1.9,0,2.74-.77,2.74-1.9s-.7-1.76-2.81-2.5c-3.34-1.16-4.75-3-4.72-5,0-3,2.51-5.38,6.48-5.38a10,10,0,0,1,4.53,1l-.84,3.06a7.71,7.71,0,0,0-3.62-1c-1.55,0-2.39.74-2.39,1.8s.81,1.62,3,2.39c3.09,1.12,4.53,2.71,4.57,5.24,0,3.09-2.43,5.34-7,5.34a11.08,11.08,0,0,1-5.21-1.19Z"/><path class="cls-1" d="M240.35,487.08V473.19H238V470h2.32v-.73a8,8,0,0,1,2.07-5.84,6.5,6.5,0,0,1,4.46-1.66,8.23,8.23,0,0,1,2.78.43l-.31,3.34a5,5,0,0,0-1.83-.32c-2.15,0-2.89,1.79-2.89,3.91V470h3.76v3.24h-3.72v13.89Z"/><path class="cls-1" d="M267.83,478.36c0,6.3-4.43,9.11-8.79,9.11-4.85,0-8.58-3.34-8.58-8.83s3.7-9.07,8.86-9.07S267.83,473.16,267.83,478.36Zm-12.9.18c0,3.3,1.62,5.8,4.25,5.8,2.47,0,4.19-2.43,4.19-5.87,0-2.68-1.2-5.74-4.16-5.74S254.93,475.69,254.93,478.54Z"/><path class="cls-1" d="M272.25,475.48c0-2.32,0-4-.14-5.53h3.76l.14,3.28h.14a5.1,5.1,0,0,1,4.68-3.66,4.09,4.09,0,0,1,1,.11v4.07a6.13,6.13,0,0,0-1.27-.14,3.82,3.82,0,0,0-3.87,3.27,7.56,7.56,0,0,0-.14,1.34v8.86h-4.32Z"/><path class="cls-1" d="M298.71,480.36l-2,6.72H292.2l7.6-23.7h5.52l7.7,23.7h-4.64l-2.14-6.72Zm6.79-3.27-1.87-5.83c-.45-1.45-.84-3.06-1.19-4.43h-.07c-.36,1.37-.71,3-1.13,4.43l-1.83,5.83Z"/><path class="cls-1" d="M316.83,475.05c0-2,0-3.62-.14-5.1h3.8l.2,2.57h.11a6.18,6.18,0,0,1,5.45-2.95c3,0,6.09,1.93,6.09,7.35v10.16H328v-9.67c0-2.46-.91-4.32-3.27-4.32a3.63,3.63,0,0,0-3.38,2.53,4.37,4.37,0,0,0-.17,1.4v10.06h-4.36Z"/><path class="cls-1" d="M347.44,487.08l-.28-1.9h-.11a6.35,6.35,0,0,1-5.06,2.29,5.09,5.09,0,0,1-5.39-5.1c0-4.33,3.84-6.51,10.17-6.47v-.28c0-1.13-.46-3-3.49-3a9.15,9.15,0,0,0-4.6,1.26l-.84-2.81a12.34,12.34,0,0,1,6.18-1.51c5.49,0,7.08,3.48,7.08,7.21V483a28.32,28.32,0,0,0,.24,4.11Zm-.57-8.37c-3.06-.07-6,.6-6,3.2a2.27,2.27,0,0,0,2.47,2.46,3.5,3.5,0,0,0,3.37-2.35,3,3,0,0,0,.14-.95Z"/><path class="cls-1" d="M356.52,462.11h4.37v25h-4.37Z"/><path class="cls-1" d="M369.14,470l3.1,9.18c.35,1.06.7,2.36.94,3.35h.11c.29-1,.6-2.25.91-3.38l2.68-9.15h4.64l-4.29,11.68c-2.36,6.4-3.94,9.25-6,11a8.68,8.68,0,0,1-4.54,2.21l-1-3.65a7.76,7.76,0,0,0,4.89-3.91,1.77,1.77,0,0,0,.28-.77,2,2,0,0,0-.24-.85L364.39,470Z"/><path class="cls-1" d="M383.26,484.58l6.44-8.23c.88-1.05,1.62-1.89,2.53-2.88v-.07h-8.34V470H397.5v2.64l-6.29,8.06c-.85,1-1.66,2-2.54,2.92v.07h9v3.44H383.26Z"/><path class="cls-1" d="M406.17,465.17a2.43,2.43,0,1,1-2.42-2.35A2.29,2.29,0,0,1,406.17,465.17Zm-4.6,21.91V470h4.36v17.13Z"/><path class="cls-1" d="M411.44,475.05c0-2,0-3.62-.14-5.1h3.8l.21,2.57h.1a6.2,6.2,0,0,1,5.46-2.95c3,0,6.08,1.93,6.08,7.35v10.16h-4.33v-9.67c0-2.46-.91-4.32-3.26-4.32a3.63,3.63,0,0,0-3.38,2.53,4.36,4.36,0,0,0-.18,1.4v10.06h-4.36Z"/><path class="cls-1" d="M448.06,470c-.07,1.16-.14,2.57-.14,4.93v9.7c0,3.59-.73,6.16-2.53,7.78a9.84,9.84,0,0,1-6.61,2.07,12.18,12.18,0,0,1-6-1.37l.95-3.27a10.38,10.38,0,0,0,5,1.3c2.81,0,4.92-1.48,4.92-5.17v-1.48h-.07a5.79,5.79,0,0,1-5,2.54c-4.25,0-7.27-3.52-7.27-8.37,0-5.63,3.65-9,7.77-9a5.42,5.42,0,0,1,5,2.67h.07l.17-2.29Zm-4.46,6.86a4.44,4.44,0,0,0-.14-1.16,3.6,3.6,0,0,0-3.52-2.78c-2.43,0-4.22,2.12-4.22,5.6,0,2.92,1.47,5.27,4.18,5.27a3.7,3.7,0,0,0,3.52-2.6,7.22,7.22,0,0,0,.18-1.55Z"/><path class="cls-1" d="M464.88,467h-6.75v-3.62H476V467H469.2v20.08h-4.32Z"/><path class="cls-1" d="M483.47,465.17a2.43,2.43,0,1,1-2.43-2.35A2.29,2.29,0,0,1,483.47,465.17Zm-4.61,21.91V470h4.36v17.13Z"/><path class="cls-1" d="M488.73,475.05c0-2,0-3.62-.14-5.1h3.73l.17,2.54h.11a5.91,5.91,0,0,1,5.27-2.92,4.94,4.94,0,0,1,4.75,3.16h.07a6.45,6.45,0,0,1,2.11-2.14,5.71,5.71,0,0,1,3.45-1c2.85,0,5.73,1.93,5.73,7.42v10.09h-4.22v-9.46c0-2.85-1-4.53-3.06-4.53a3.29,3.29,0,0,0-3,2.28,6,6,0,0,0-.21,1.44v10.27h-4.23v-9.91c0-2.4-.94-4.08-2.95-4.08a3.37,3.37,0,0,0-3.09,2.46A3.59,3.59,0,0,0,493,477v10.13h-4.22Z"/><path class="cls-1" d="M522.46,479.73c.11,3.1,2.54,4.43,5.28,4.43a13,13,0,0,0,4.75-.77l.63,3a16.12,16.12,0,0,1-6,1.05c-5.56,0-8.82-3.41-8.82-8.65,0-4.75,2.87-9.21,8.36-9.21s7.39,4.57,7.39,8.33a9.6,9.6,0,0,1-.15,1.83Zm7.53-3c0-1.59-.67-4.19-3.56-4.19-2.67,0-3.79,2.43-4,4.19Z"/><path class="cls-1" d="M148.33,520.7a12,12,0,0,0,5.74,1.51c2.78,0,4.32-1.3,4.32-3.24s-1.19-2.85-4.22-3.94c-3.9-1.4-6.4-3.48-6.4-6.89,0-3.86,3.24-6.82,8.37-6.82a12.42,12.42,0,0,1,5.7,1.2L160.78,506a10,10,0,0,0-4.71-1.13c-2.74,0-3.94,1.48-3.94,2.85,0,1.83,1.37,2.67,4.54,3.9,4.11,1.55,6.11,3.63,6.11,7,0,3.8-2.87,7.1-9,7.1a14,14,0,0,1-6.4-1.48Z"/><path class="cls-1" d="M170.26,518.06c.11,3.1,2.54,4.43,5.28,4.43a13,13,0,0,0,4.75-.77l.62,3a16,16,0,0,1-6,1c-5.56,0-8.83-3.41-8.83-8.65,0-4.75,2.88-9.21,8.37-9.21s7.39,4.57,7.39,8.33a9.6,9.6,0,0,1-.15,1.83Zm7.53-3c0-1.58-.67-4.18-3.56-4.18-2.67,0-3.8,2.43-4,4.18Z"/><path class="cls-1" d="M185.82,513.8c0-2.32,0-4-.14-5.52h3.76l.14,3.27h.14a5.12,5.12,0,0,1,4.68-3.65,4.58,4.58,0,0,1,1,.1v4.08a6,6,0,0,0-1.27-.14,3.81,3.81,0,0,0-3.86,3.27,7.56,7.56,0,0,0-.14,1.34v8.86h-4.33Z"/><path class="cls-1" d="M203.42,503.5a2.43,2.43,0,1,1-2.42-2.36A2.29,2.29,0,0,1,203.42,503.5Zm-4.6,21.91V508.28h4.36v17.13Z"/><path class="cls-1" d="M211.37,518.06c.1,3.1,2.53,4.43,5.27,4.43a12.91,12.91,0,0,0,4.75-.77l.63,3a16.08,16.08,0,0,1-6,1c-5.55,0-8.82-3.41-8.82-8.65,0-4.75,2.88-9.21,8.37-9.21s7.38,4.57,7.38,8.33a10.73,10.73,0,0,1-.14,1.83Zm7.52-3c0-1.58-.67-4.18-3.55-4.18-2.67,0-3.8,2.43-4,4.18Z"/><path class="cls-1" d="M226.72,521.43a9.61,9.61,0,0,0,4.39,1.24c1.9,0,2.74-.78,2.74-1.9s-.7-1.76-2.81-2.5c-3.34-1.16-4.75-3-4.71-5,0-3,2.5-5.38,6.47-5.38a10.09,10.09,0,0,1,4.54,1l-.85,3.06a7.6,7.6,0,0,0-3.62-1c-1.55,0-2.39.74-2.39,1.79s.81,1.62,3,2.4c3.09,1.12,4.53,2.7,4.57,5.24,0,3.09-2.43,5.34-7,5.34a11.08,11.08,0,0,1-5.21-1.19Z"/><path class="cls-1" d="M266.11,516.69c0,6.29-4.43,9.11-8.79,9.11-4.85,0-8.58-3.34-8.58-8.83s3.7-9.07,8.86-9.07S266.11,511.48,266.11,516.69Zm-12.9.17c0,3.31,1.62,5.81,4.25,5.81,2.47,0,4.19-2.43,4.19-5.88,0-2.67-1.2-5.73-4.16-5.73S253.21,514,253.21,516.86Z"/><path class="cls-1" d="M270.63,525.41V511.52h-2.32v-3.24h2.32v-.74a8,8,0,0,1,2.08-5.83,6.5,6.5,0,0,1,4.45-1.66,8.23,8.23,0,0,1,2.78.43l-.31,3.34a5,5,0,0,0-1.83-.32c-2.15,0-2.89,1.79-2.89,3.9v.88h3.77v3.24H275v13.89Z"/><path class="cls-1" d="M289.67,520.7a11.92,11.92,0,0,0,5.73,1.51c2.78,0,4.33-1.3,4.33-3.24s-1.2-2.85-4.23-3.94c-3.9-1.4-6.4-3.48-6.4-6.89,0-3.86,3.24-6.82,8.38-6.82a12.41,12.41,0,0,1,5.69,1.2L302.12,506a10,10,0,0,0-4.72-1.13c-2.74,0-3.94,1.48-3.94,2.85,0,1.83,1.38,2.67,4.54,3.9,4.12,1.55,6.12,3.63,6.12,7,0,3.8-2.88,7.1-9,7.1a14,14,0,0,1-6.39-1.48Z"/><path class="cls-1" d="M318.17,525.41l-.28-1.9h-.11a6.33,6.33,0,0,1-5.06,2.29,5.08,5.08,0,0,1-5.38-5.1c0-4.33,3.84-6.51,10.16-6.47v-.29c0-1.12-.46-3-3.48-3a9.09,9.09,0,0,0-4.61,1.27l-.84-2.81a12.28,12.28,0,0,1,6.19-1.51c5.49,0,7.07,3.48,7.07,7.21v6.19a28.41,28.41,0,0,0,.24,4.11Zm-.56-8.37c-3.06-.07-6,.6-6,3.2a2.27,2.27,0,0,0,2.47,2.46,3.49,3.49,0,0,0,3.37-2.36,3.2,3.2,0,0,0,.14-.94Z"/><path class="cls-1" d="M331.63,503.39v4.89h4.11v3.24h-4.11v7.56c0,2.08.55,3.17,2.21,3.17a6.17,6.17,0,0,0,1.69-.22l.07,3.31a9.72,9.72,0,0,1-3.13.42,5,5,0,0,1-3.73-1.41c-.91-1-1.34-2.53-1.34-4.78v-8.05h-2.46v-3.24h2.46v-3.87Z"/><path class="cls-1" d="M342.34,518.06c.1,3.1,2.53,4.43,5.27,4.43a12.91,12.91,0,0,0,4.75-.77l.63,3a16.08,16.08,0,0,1-6,1c-5.55,0-8.82-3.41-8.82-8.65,0-4.75,2.88-9.21,8.37-9.21s7.39,4.57,7.39,8.33a9.6,9.6,0,0,1-.15,1.83Zm7.52-3c0-1.58-.67-4.18-3.55-4.18-2.67,0-3.8,2.43-4,4.18Z"/><path class="cls-1" d="M357.9,500.44h4.36v25H357.9Z"/><path class="cls-1" d="M367.42,500.44h4.36v25h-4.36Z"/><path class="cls-1" d="M381.55,503.5a2.29,2.29,0,0,1-2.46,2.32,2.27,2.27,0,0,1-2.39-2.32,2.43,2.43,0,0,1,4.85,0Zm-4.61,21.91V508.28h4.36v17.13Z"/><path class="cls-1" d="M391.39,503.39v4.89h4.11v3.24h-4.11v7.56c0,2.08.55,3.17,2.21,3.17a6.17,6.17,0,0,0,1.69-.22l.07,3.31a9.72,9.72,0,0,1-3.13.42,5,5,0,0,1-3.73-1.41c-.91-1-1.34-2.53-1.34-4.78v-8.05H384.7v-3.24h2.46v-3.87Z"/><path class="cls-1" d="M402.1,518.06c.1,3.1,2.53,4.43,5.27,4.43a12.91,12.91,0,0,0,4.75-.77l.63,3a16.08,16.08,0,0,1-6,1c-5.55,0-8.82-3.41-8.82-8.65,0-4.75,2.88-9.21,8.37-9.21s7.38,4.57,7.38,8.33a10.73,10.73,0,0,1-.14,1.83Zm7.52-3c0-1.58-.67-4.18-3.55-4.18-2.67,0-3.8,2.43-4,4.18Z"/><path class="cls-1" d="M429.92,501.71v23.7h-4.33v-23.7Z"/><path class="cls-1" d="M435.4,513.38c0-2,0-3.62-.14-5.1H439l.18,2.54h.1a5.93,5.93,0,0,1,5.28-2.92,4.94,4.94,0,0,1,4.75,3.16h.07a6.45,6.45,0,0,1,2.11-2.14,5.7,5.7,0,0,1,3.44-1c2.85,0,5.74,1.93,5.74,7.42v10.09h-4.22V516c0-2.85-1-4.54-3.06-4.54a3.31,3.31,0,0,0-3,2.29,6.49,6.49,0,0,0-.21,1.44v10.27h-4.22v-9.92c0-2.39-1-4.08-3-4.08a3.39,3.39,0,0,0-3.1,2.46,3.87,3.87,0,0,0-.24,1.41v10.13H435.4Z"/><path class="cls-1" d="M475.32,525.41l-.28-1.9h-.11a6.33,6.33,0,0,1-5.06,2.29,5.08,5.08,0,0,1-5.38-5.1c0-4.33,3.84-6.51,10.16-6.47v-.29c0-1.12-.46-3-3.48-3a9.09,9.09,0,0,0-4.61,1.27l-.84-2.81a12.28,12.28,0,0,1,6.19-1.51c5.49,0,7.07,3.48,7.07,7.21v6.19a26.91,26.91,0,0,0,.25,4.11Zm-.56-8.37c-3.06-.07-6,.6-6,3.2a2.27,2.27,0,0,0,2.46,2.46,3.5,3.5,0,0,0,3.38-2.36,3.2,3.2,0,0,0,.14-.94Z"/><path class="cls-1" d="M499.67,508.28c-.07,1.16-.14,2.57-.14,4.93v9.7c0,3.59-.74,6.16-2.54,7.77a9.79,9.79,0,0,1-6.6,2.08,12.18,12.18,0,0,1-6-1.37l.95-3.27a10.34,10.34,0,0,0,5,1.3c2.81,0,4.92-1.48,4.92-5.17v-1.48h-.07a5.78,5.78,0,0,1-5,2.54c-4.25,0-7.28-3.52-7.28-8.38,0-5.62,3.66-9,7.77-9a5.39,5.39,0,0,1,5,2.67h.07l.18-2.29Zm-4.47,6.86a4.05,4.05,0,0,0-.14-1.16,3.59,3.59,0,0,0-3.52-2.78c-2.42,0-4.22,2.11-4.22,5.59,0,2.92,1.48,5.28,4.19,5.28a3.71,3.71,0,0,0,3.52-2.6,7.91,7.91,0,0,0,.17-1.55Z"/><path class="cls-1" d="M507.7,518.06c.11,3.1,2.54,4.43,5.28,4.43a12.91,12.91,0,0,0,4.75-.77l.63,3a16.08,16.08,0,0,1-6,1c-5.55,0-8.82-3.41-8.82-8.65,0-4.75,2.88-9.21,8.37-9.21s7.38,4.57,7.38,8.33a10.73,10.73,0,0,1-.14,1.83Zm7.53-3c0-1.58-.67-4.18-3.55-4.18-2.67,0-3.8,2.43-4,4.18Z"/><path class="cls-1" d="M523.05,521.43a9.65,9.65,0,0,0,4.4,1.24c1.9,0,2.74-.78,2.74-1.9s-.7-1.76-2.81-2.5c-3.34-1.16-4.75-3-4.72-5,0-3,2.51-5.38,6.48-5.38a10,10,0,0,1,4.53,1l-.84,3.06a7.6,7.6,0,0,0-3.62-1c-1.55,0-2.39.74-2.39,1.79s.81,1.62,3,2.4c3.09,1.12,4.53,2.7,4.57,5.24,0,3.09-2.43,5.34-7,5.34a11.08,11.08,0,0,1-5.21-1.19Z"/></svg>